<?xml version="1.0" encoding="UTF-8"?>
<svg id="Calque_2" data-name="Calque 2" xmlns="http://www.w3.org/2000/svg" viewBox="0 0 1637.09 792.4">
  <defs>
    <style>
      .cls-1 {
        fill: #000;
        fill-rule: evenodd;
        stroke-width: 0px;
      }

      .cls-2 {
        fill: none;
        stroke: #000;
        stroke-linecap: round;
        stroke-linejoin: round;
        stroke-width: 10px;
      }
    </style>
  </defs>
  <g id="Calque_1-2" data-name="Calque 1">
    <path class="cls-2" d="M541.92,312.24c33.32,8.2,58.77,42.64,77.59,70.06,18.82,27.41,35.95,48.74,44.12,60.92,8.17,12.18.95,41.12,16.74,67.01,15.78,25.89,34.43,57.87,41.08,76.15,6.65,18.28.19,29.7-18.26,41.12-18.45,11.42-16.54,2.28-13.69-7.62,2.85-9.9-11.22-23.6-6.09-36.55,5.13-12.95-3.61,9.9,15.21,16.75,18.82,6.85,8.56,20.56,0,27.41-8.56,6.85-17.3,39.6-28.91,45.69-11.61,6.09-39.36-3.05-62.38-7.61-23.01-4.57-23.39-34.27-19.78-48.74,3.61-14.47,13.13-25.13,39.56-35.03,26.43-9.9,37.47-48.74,13.69-85.29-23.78-36.55-41.64-35.03-28.91-10.66,12.74,24.37,14.65,9.14,19.78-13.71,5.13-22.84-2.09-33.5-19.78-36.55-17.69-3.05-41.64,5.33-51.73-22.84-10.08-28.17,24.54-54.83,39.56-70.06,15.02-15.23,13.13-56.35-1.52-65.49-14.65-9.14-73.08,14.36-79.11,28.94-2.73,6.6,4.25,1.52,22.82,6.09ZM306.27,341.62c-10.13,12.59-34.34,12.44-54,0-19.66-12.45-18.86-45.58,3.18-50.87,22.03-5.29,69.58-8.03,134.99,28.62,58.05,32.52,66.25,57.13,84.17,90.62,18.54,34.64,26.54,28.39,33.35,30.21,6.81,1.82,8.17,4.76,17.47,12.72,9.3,7.96,20.65,28.62,20.65,28.62,0,0-2.31-12.09-11.12-36.57-8.8-24.47-41.29-52.46-41.29-52.46,0,0,3.4.95,17.47,6.36,14.07,5.41,30.18,23.85,30.18,23.85,0,0-8.35-26.4-25.41-41.33-17.06-14.94-46.06-34.98-46.06-34.98,0,0-.19-1.86,14.29-1.59,14.49.27,27,3.18,27,3.18,0,0-3.77-9.41-20.65-17.49-16.88-8.07-61.94-20.67-61.94-20.67,0,0,6.95-3.05,20.65-3.18,13.7-.13,30.18,4.77,30.18,4.77,0,0-15.28-14.58-34.94-19.08-19.66-4.5-57.17-6.36-57.17-6.36,0,0,6.16-2.66,15.88-6.36,9.72-3.7,27-11.13,27-11.13,0,0-10.92-4.25-25.41-4.77-14.5-.52-55.59,4.77-55.59,4.77,0,0,3.38-4.25,14.29-9.54,10.92-5.29,30.18-7.95,30.18-7.95,0,0-17.67-4.25-38.12-1.59-20.45,2.66-52.41,9.54-52.41,9.54,0,0,8.54-7.03,22.23-12.72,13.7-5.69,27-9.54,27-9.54,0,0-21.24-1.46-31.76,0-10.52,1.46-39.7,12.72-39.7,12.72,0,0,2.19-4.25,11.12-11.13,8.93-6.88,23.82-15.9,23.82-15.9,0,0-19.25.92-33.35,6.36-14.1,5.44-36.53,22.26-36.53,22.26,0,0,9.73-14.98,17.47-22.26,7.74-7.28,23.82-20.67,23.82-20.67,0,0-9.72-.27-23.82,7.95-14.1,8.22-41.29,34.98-41.29,34.98,0,0,12.91-31.67,11.12-31.8-1.79-.12-12.9,4.89-19.06,11.13-6.16,6.23-27,34.98-27,34.98,0,0,2.58-19.75,0-19.08-2.58.67-4.96,3.31-12.71,17.49-7.74,14.18-16.08,17.61-27,20.67-10.92,3.05-31.17,15.62-38.12,22.26-6.95,6.63-12.9,27.55-15.88,38.15-2.98,10.61-9.33,13.64-11.12,23.85-1.79,10.21-.59,27.95,6.35,31.79,6.95,3.85,10.92,1.32,15.88-3.18,4.96-4.5,23.63-13.79,34.94-19.08,11.31-5.29,8.94,1.71,0,6.36-8.94,4.64-33.35,22.26-33.35,22.26,0,0,1.79,2.91,7.94,6.36,6.15,3.45,15.29,6.09,42.88,3.18,27.59-2.91,40.3-3.05,50.82,0,10.52,3.06,10.92,4.9,22.23-1.59,11.31-6.48,9.33-8.22,19.06-17.49,9.72-9.27,4.57-16.57-4.76-15.9s-31.16,5.69-36.53,4.77c-5.36-.92-14.09-18.55-19.06-30.2-4.97-11.65-4.17-25.71,9.53-28.62,13.7-2.91,20.85,2.11,23.82,17.49,2.98,15.38-10.12,13.24-1.59,22.26,8.53,9.02,28.39,2.11,44.47,6.36,16.08,4.25,25.41,34.98,25.41,34.98,0,0,4.17,9.81-7.94,15.9-12.11,6.09-23.63,18.16-33.35,14.31-9.73-3.85-31.17-8.47-38.12-7.95-6.95.52-2.58,5.84,7.94,7.95,10.52,2.11,20.05,4.25,20.65,6.36.6,2.11-29.58,14.98-36.53,17.49-6.95,2.51-16.08,11.8,0,7.95,16.08-3.85,29.18-12.45,30.18-9.54,1,2.91-10.13,21.73-11.12,28.62-.99,6.88,1.39,16.96,14.29,0,12.91-16.96,15.88-22.26,15.88-22.26,0,0,4.96,16.57,9.53,23.85,4.57,7.28,8.14,11.4,7.94-4.77-.2-16.17,1.59-19.08,1.59-19.08,0,0,10.12-2.91,28.59-7.95,18.47-5.04,35.53-13.24,44.47-22.26,8.94-9.02,18.06-52.98,12.71-65.18-5.36-12.2-23.23-8.07-23.82,23.85-.59,31.92,20.84,68.23,30.17,84.26,9.33,16.02,15.68,28.89,36.53,25.44,20.85-3.45,27.59-11.65-27-14.31-54.59-2.66-52.21,2.26-52.41,9.54-.19,7.28,4.43,34.72,4.76,42.92.33,8.21.06,13.65-1.59,12.72-1.65-.93-12.64-10.59-23.82-20.67-11.18-10.08-19.79-9-6.35,4.77,13.43,13.77,16.34,15.24,15.88,19.08-.46,3.83-24.95.14-33.35,0-8.4-.14-16.22,5.31,9.53,7.95,25.74,2.64,27.06-.66,17.47,17.49-9.59,18.14-7.08,28.36,0,20.67,7.08-7.69,16.34-22.51,20.65-23.85s19.12,14.05,25.41,19.08c6.29,5.03,21.9,19.62,14.29,0-7.61-19.61-15.82-7.01-15.88-34.97-.06-27.96-.73-30.46,6.35-30.21s35,20.01,49.23,23.85c14.23,3.83,7.74,9.87,41.4,13.25,56.46,5.65,95.65,40.36,106.5,74.63,10.84,34.27,24.91,47.21,33.47,41.12,8.56-6.09-5.52-5.33-9.13,10.66-3.61,15.99,24.15-4.57,28.91-12.19,4.76-7.61-24.54,16.75,0,16.75s47.73-10.66,30.43-12.19c-17.3-1.52-21.16,24.37-21.16,24.37,0,0-2.09,2.09-2.27,2.22-62.51,43.72-138.57,69.36-220.61,69.36-213,0-385.68-172.85-385.68-386.07C5,245.44,97.29,111.14,230.17,50.18c19.75-9.06,29.34-12.93,33.75-14.31.21-.07,1.09-.21,1-.36-1.4-2.5-4.12-7.89-8.97-13.73-6.82-8.22-22.34-16.29-22.34-16.29,0,0,30.7-3.46,55.29,8.06,24.59,11.52,31.68,22.44,31.68,22.44,0,0,23.93-.41,48.45,15.84,24.52,16.25,35.76,28.75,45.18,48.34,9.42,19.59,8.63,26.22,12.21,29.31,3.58,3.09,15.85,18.58,14.36,23.64-1.49,5.06-1.68,15.8-34.04-2.57-32.36-18.37-41.49-17.09-41.49-17.09,0,0-22.17,19.69-49.61,21.36-27.43,1.68-43.26-2.18-43.26-2.18,0,0,26.39-10.3,32.29-20.16s7.59-16.58,7.59-16.58"/>
    <path class="cls-1" d="M1625.91,328.02v-39.22c-1.53,4.9-3.56,9.4-6.15,13.46-6.34,9.96-14.36,17.36-24.05,22.21-9.69,4.85-19.76,7.28-30.2,7.28-9.2,0-18.15-1.93-26.85-5.79-8.7-3.86-15.85-9.76-21.44-17.73-5.59-7.96-8.39-18.04-8.39-30.23,0-16.67,5.65-29.73,16.97-39.19,11.31-9.45,26.41-14.18,45.3-14.18,10.68,0,19.95,1.18,27.78,3.55,7.83,2.37,14.48,5.04,19.95,8.03,2.78,1.52,5.14,2.94,7.09,4.27v-31.89c0-4.23-.5-8.89-1.49-14-1-5.1-3.11-10.08-6.34-14.93-3.23-4.85-8.02-8.83-14.36-11.94-6.34-3.11-14.73-4.67-25.17-4.67-8.45,0-16.03,1-22.74,2.99-6.71,2-12.56,4.36-17.53,7.09-4.98,2.74-9.32,5.48-13.05,8.21l-5.59-8.58c6.21-4.48,14.17-8.96,23.87-13.44,9.69-4.48,21.63-6.72,35.8-6.72,12.68,0,23.3,2.12,31.88,6.35,8.58,4.23,15.04,10.45,19.39,18.66,4.35,8.21,6.53,18.17,6.53,29.86v120.56h-11.19ZM1625.91,249.46c-6.96-4.63-14.41-8.2-22.37-10.65-9.69-2.99-20.01-4.48-30.95-4.48-9.45,0-18.15,1.44-26.1,4.29-7.96,2.86-14.3,7.46-19.02,13.81-4.73,6.35-7.09,14.62-7.09,24.82s2.3,18.91,6.9,25.38c4.6,6.47,10.56,11.26,17.9,14.37,7.33,3.12,15.1,4.67,23.3,4.67,10.19,0,19.58-2.48,28.15-7.46,8.58-4.97,15.6-12.56,21.07-22.77,5.46-10.2,8.2-23.01,8.2-38.45v-3.53ZM1455.5,82.04c-2.49,0-4.54-.87-6.15-2.61-1.62-1.74-2.42-3.73-2.42-5.97,0-2.49.8-4.54,2.42-6.16,1.61-1.62,3.66-2.43,6.15-2.43,2.73,0,4.85.81,6.34,2.43,1.49,1.62,2.24,3.67,2.24,6.16,0,2.24-.75,4.23-2.24,5.97-1.49,1.74-3.61,2.61-6.34,2.61ZM1376.08,276.41c-1.08,3.38-2.31,6.71-3.73,9.99-5.97,13.81-14.42,24.82-25.35,33.03-10.94,8.21-23.99,12.32-39.15,12.32s-28.53-3.67-40.83-11.01c-12.3-7.34-22.06-17.73-29.27-31.17-7.21-13.44-10.81-29.24-10.81-47.4s3.6-34.28,10.81-47.59c7.21-13.31,16.97-23.64,29.27-30.98,12.3-7.34,25.91-11.01,40.83-11.01s28.21,4.11,39.15,12.32c10.94,8.21,19.39,19.16,25.35,32.85,1.42,3.25,2.65,6.56,3.73,9.93V36.88h11.19v291.14h-11.19v-51.61ZM1367.13,203.16c-5.97-11.82-13.92-21.4-23.86-28.74-9.95-7.34-21.01-11.01-33.19-11.01-13.42,0-25.54,3.17-36.36,9.52-10.81,6.35-19.39,15.37-25.73,27.06-6.34,11.7-9.51,25.75-9.51,42.18s3.17,30.18,9.51,41.99c6.34,11.82,14.91,20.9,25.73,27.25,10.81,6.35,22.93,9.52,36.36,9.52,12.18,0,23.24-3.67,33.19-11.01,9.94-7.34,17.9-16.92,23.86-28.74,5.97-11.81,8.95-24.82,8.95-39s-2.98-27.18-8.95-39ZM1291.44,529.64c13.17,7.72,23.61,18.29,31.32,31.73,7.7,13.44,11.56,28.87,11.56,46.28s-3.86,32.54-11.56,46.1c-7.71,13.57-18.15,24.2-31.32,31.91-13.18,7.72-28.09,11.57-44.74,11.57s-31.2-3.86-44.37-11.57c-13.18-7.71-23.62-18.35-31.32-31.91-7.71-13.56-11.56-28.93-11.56-46.1s3.85-32.85,11.56-46.28c7.7-13.44,18.14-24.01,31.32-31.73,13.17-7.71,27.96-11.57,44.37-11.57s31.57,3.86,44.74,11.57ZM1181.07,566.96c-6.71,11.94-10.07,25.63-10.07,41.06s3.36,28.68,10.07,40.5c6.71,11.82,15.85,21.09,27.41,27.81s24.42,10.08,38.59,10.08,26.97-3.36,38.41-10.08c11.43-6.72,20.51-16.05,27.22-27.99,6.71-11.94,10.07-25.5,10.07-40.68s-3.36-28.74-10.07-40.69-15.79-21.28-27.22-27.99c-11.44-6.72-24.24-10.08-38.41-10.08s-27.03,3.36-38.59,10.08c-11.56,6.72-20.69,16.05-27.41,27.99ZM1175.1,288.8c-1.53,4.9-3.56,9.4-6.15,13.47-6.34,9.96-14.36,17.36-24.05,22.21-9.69,4.85-19.76,7.28-30.2,7.28-9.2,0-18.15-1.93-26.85-5.79-8.7-3.86-15.85-9.76-21.44-17.73-5.59-7.96-8.39-18.04-8.39-30.23,0-16.67,5.65-29.73,16.97-39.19,11.31-9.45,26.41-14.18,45.3-14.18,10.69,0,19.95,1.18,27.78,3.55,7.83,2.37,14.48,5.04,19.95,8.03,2.78,1.52,5.14,2.94,7.08,4.27v-31.89c0-4.23-.5-8.89-1.49-14-1-5.1-3.11-10.08-6.34-14.93-3.23-4.85-8.02-8.83-14.35-11.94-6.34-3.11-14.73-4.67-25.17-4.67-8.46,0-16.03,1-22.75,2.99-6.71,2-12.56,4.36-17.52,7.09-4.98,2.74-9.32,5.48-13.05,8.21l-5.59-8.58c6.21-4.48,14.17-8.96,23.87-13.44,9.69-4.48,21.63-6.72,35.8-6.72,12.68,0,23.3,2.12,31.88,6.35,8.58,4.23,15.04,10.45,19.39,18.66,4.35,8.21,6.53,18.17,6.53,29.86v120.56h-11.19v-39.22ZM1175.1,249.46c-6.96-4.63-14.41-8.2-22.37-10.65-9.69-2.99-20.01-4.48-30.95-4.48-9.45,0-18.15,1.44-26.1,4.29-7.96,2.86-14.3,7.46-19.02,13.81-4.73,6.35-7.08,14.62-7.08,24.82s2.3,18.91,6.9,25.38c4.6,6.47,10.56,11.26,17.9,14.37,7.33,3.12,15.1,4.67,23.3,4.67,10.19,0,19.58-2.48,28.15-7.46,8.58-4.97,15.6-12.56,21.07-22.77,5.46-10.2,8.2-23.01,8.2-38.45v-3.53ZM1116.56,561.36c7.7,13.44,11.56,28.87,11.56,46.28s-3.86,32.54-11.56,46.1c-7.71,13.57-18.15,24.2-31.32,31.91-13.18,7.72-28.09,11.57-44.74,11.57s-31.2-3.86-44.37-11.57c-13.18-7.71-23.62-18.35-31.32-31.91-7.71-13.56-11.56-28.93-11.56-46.1s3.85-32.85,11.56-46.28c7.7-13.44,18.14-24.01,31.32-31.73,13.17-7.71,27.97-11.57,44.37-11.57s31.57,3.86,44.74,11.57c13.17,7.72,23.61,18.29,31.32,31.73ZM1040.86,528.89c-14.17,0-27.03,3.36-38.59,10.08-11.56,6.72-20.69,16.05-27.41,27.99-6.71,11.94-10.07,25.63-10.07,41.06s3.36,28.68,10.07,40.5c6.71,11.82,15.85,21.09,27.41,27.81s24.42,10.08,38.59,10.08,26.97-3.36,38.41-10.08c11.43-6.72,20.51-16.05,27.22-27.99,6.71-11.94,10.07-25.5,10.07-40.68s-3.36-28.74-10.07-40.69c-6.71-11.94-15.79-21.28-27.22-27.99-11.44-6.72-24.24-10.08-38.41-10.08ZM1000.22,324.84c-10.69,4.6-22.5,6.9-35.42,6.9-16.66,0-31.57-3.85-44.74-11.57-13.18-7.71-23.62-18.35-31.32-31.91-7.71-13.56-11.56-28.93-11.56-46.1s3.85-32.85,11.56-46.28c7.7-13.44,18.14-24.01,31.32-31.73,13.17-7.71,28.09-11.57,44.74-11.57,12.92,0,24.73,2.3,35.42,6.9,10.68,4.61,18.27,9.52,22.75,14.74v14.56c-2.49-3.73-6.59-7.52-12.3-11.38-5.72-3.86-12.49-7.15-20.32-9.89-7.83-2.73-16.35-4.11-25.54-4.11-14.17,0-27.03,3.36-38.59,10.08-11.56,6.72-20.69,16.05-27.41,28-6.71,11.94-10.07,25.51-10.07,40.68s3.36,28.74,10.07,40.68c6.71,11.94,15.85,21.28,27.41,28,11.56,6.72,24.42,10.08,38.59,10.08,9.19,0,17.71-1.37,25.54-4.11,7.83-2.73,14.6-6.03,20.32-9.89,5.72-3.85,9.82-7.65,12.3-11.38v14.56c-4.47,5.22-12.06,10.14-22.75,14.74ZM847.34,165.46c-3.48-1.37-7.21-2.05-11.19-2.05-9.2,0-16.72,2.74-22.56,8.21-5.84,5.48-10.07,12.76-12.68,21.84-2.61,9.09-3.91,19.1-3.91,30.05v104.51h-11.56v-171.7h11.56v31.39c.06-.19.12-.4.18-.59,3.6-10.57,8.95-18.97,16.03-25.19,7.08-6.22,15.47-9.33,25.17-9.33,4.72,0,9.32.81,13.8,2.43,4.47,1.62,8.45,3.92,11.93,6.91l-6.34,9.33c-3.48-2.49-6.96-4.41-10.44-5.79ZM762.7,432.22h179.73l-165.93,249.71h161.46v11.57h-182.71l165.93-249.71h-158.47v-11.57ZM698.79,233.21h-118.21c-1.07,2.66-2.61,6.48-4.47,11.08l-11.79-2.31c32.4-78.74,75.34-183.08,75.34-183.08l110.75,269.12h-13.8l-37.81-94.81ZM639.65,87.27l-54.64,134.74h109.35l-54.71-134.74ZM1461.47,328.02h-11.56v-171.7h11.56v171.7Z"/>
  </g>
</svg>