<?xml version="1.0" encoding="UTF-8"?>
<svg id="Calque_2" data-name="Calque 2" xmlns="http://www.w3.org/2000/svg" viewBox="0 0 728.99 792.4">
  <defs>
    <style>
      .cls-1 {
        fill: none;
        stroke: #000;
        stroke-linecap: round;
        stroke-linejoin: round;
        stroke-width: 10px;
      }
    </style>
  </defs>
  <g id="Calque_1-2" data-name="Calque 1">
    <path class="cls-1" d="M541.92,312.24c33.32,8.2,58.77,42.64,77.59,70.06,18.82,27.41,35.95,48.74,44.12,60.92,8.17,12.18.95,41.12,16.74,67.01,15.78,25.89,34.43,57.87,41.08,76.15,6.65,18.28.19,29.7-18.26,41.12-18.45,11.42-16.54,2.28-13.69-7.62,2.85-9.9-11.22-23.6-6.09-36.55,5.13-12.95-3.61,9.9,15.21,16.75,18.82,6.85,8.56,20.56,0,27.41-8.56,6.85-17.3,39.6-28.91,45.69-11.61,6.09-39.36-3.05-62.38-7.61-23.01-4.57-23.39-34.27-19.78-48.74,3.61-14.47,13.13-25.13,39.56-35.03,26.43-9.9,37.47-48.74,13.69-85.29-23.78-36.55-41.64-35.03-28.91-10.66,12.74,24.37,14.65,9.14,19.78-13.71,5.13-22.84-2.09-33.5-19.78-36.55-17.69-3.05-41.64,5.33-51.73-22.84-10.08-28.17,24.54-54.83,39.56-70.06,15.02-15.23,13.13-56.35-1.52-65.49-14.65-9.14-73.08,14.36-79.11,28.94-2.73,6.6,4.25,1.52,22.82,6.09ZM306.27,341.62c-10.13,12.59-34.34,12.44-54,0-19.66-12.45-18.86-45.58,3.18-50.87,22.03-5.29,69.58-8.03,134.99,28.62,58.05,32.52,66.25,57.13,84.17,90.62,18.54,34.64,26.54,28.39,33.35,30.21,6.81,1.82,8.17,4.76,17.47,12.72,9.3,7.96,20.65,28.62,20.65,28.62,0,0-2.31-12.09-11.12-36.57-8.8-24.47-41.29-52.46-41.29-52.46,0,0,3.4.95,17.47,6.36,14.07,5.41,30.18,23.85,30.18,23.85,0,0-8.35-26.4-25.41-41.33-17.06-14.94-46.06-34.98-46.06-34.98,0,0-.19-1.86,14.29-1.59,14.49.27,27,3.18,27,3.18,0,0-3.77-9.41-20.65-17.49-16.88-8.07-61.94-20.67-61.94-20.67,0,0,6.95-3.05,20.65-3.18,13.7-.13,30.18,4.77,30.18,4.77,0,0-15.28-14.58-34.94-19.08-19.66-4.5-57.17-6.36-57.17-6.36,0,0,6.16-2.66,15.88-6.36,9.72-3.7,27-11.13,27-11.13,0,0-10.92-4.25-25.41-4.77-14.5-.52-55.59,4.77-55.59,4.77,0,0,3.38-4.25,14.29-9.54,10.92-5.29,30.18-7.95,30.18-7.95,0,0-17.67-4.25-38.12-1.59-20.45,2.66-52.41,9.54-52.41,9.54,0,0,8.54-7.03,22.23-12.72,13.7-5.69,27-9.54,27-9.54,0,0-21.24-1.46-31.76,0-10.52,1.46-39.7,12.72-39.7,12.72,0,0,2.19-4.25,11.12-11.13,8.93-6.88,23.82-15.9,23.82-15.9,0,0-19.25.92-33.35,6.36-14.1,5.44-36.53,22.26-36.53,22.26,0,0,9.73-14.98,17.47-22.26,7.74-7.28,23.82-20.67,23.82-20.67,0,0-9.72-.27-23.82,7.95-14.1,8.22-41.29,34.98-41.29,34.98,0,0,12.91-31.67,11.12-31.8-1.79-.12-12.9,4.89-19.06,11.13-6.16,6.23-27,34.98-27,34.98,0,0,2.58-19.75,0-19.08-2.58.67-4.96,3.31-12.71,17.49-7.74,14.18-16.08,17.61-27,20.67-10.92,3.05-31.17,15.62-38.12,22.26-6.95,6.63-12.9,27.55-15.88,38.15-2.98,10.61-9.33,13.64-11.12,23.85-1.79,10.21-.59,27.95,6.35,31.79,6.95,3.85,10.92,1.32,15.88-3.18,4.96-4.5,23.63-13.79,34.94-19.08,11.31-5.29,8.94,1.71,0,6.36-8.94,4.64-33.35,22.26-33.35,22.26,0,0,1.79,2.91,7.94,6.36,6.15,3.45,15.29,6.09,42.88,3.18,27.59-2.91,40.3-3.05,50.82,0,10.52,3.06,10.92,4.9,22.23-1.59,11.31-6.48,9.33-8.22,19.06-17.49,9.72-9.27,4.57-16.57-4.76-15.9s-31.16,5.69-36.53,4.77c-5.36-.92-14.09-18.55-19.06-30.2-4.97-11.65-4.17-25.71,9.53-28.62,13.7-2.91,20.85,2.11,23.82,17.49s-10.12,13.24-1.59,22.26c8.53,9.02,28.39,2.11,44.47,6.36,16.08,4.25,25.41,34.98,25.41,34.98,0,0,4.17,9.81-7.94,15.9-12.11,6.09-23.63,18.16-33.35,14.31-9.73-3.85-31.17-8.47-38.12-7.95-6.95.52-2.58,5.84,7.94,7.95,10.52,2.11,20.05,4.25,20.65,6.36.6,2.11-29.58,14.98-36.53,17.49-6.95,2.51-16.08,11.8,0,7.95,16.08-3.85,29.18-12.45,30.18-9.54,1,2.91-10.13,21.73-11.12,28.62-.99,6.88,1.39,16.96,14.29,0,12.91-16.96,15.88-22.26,15.88-22.26,0,0,4.96,16.57,9.53,23.85,4.57,7.28,8.14,11.4,7.94-4.77-.2-16.17,1.59-19.08,1.59-19.08,0,0,10.12-2.91,28.59-7.95,18.47-5.04,35.53-13.24,44.47-22.26,8.94-9.02,18.06-52.98,12.71-65.18-5.36-12.2-23.23-8.07-23.82,23.85-.59,31.92,20.84,68.23,30.17,84.26,9.33,16.02,15.68,28.89,36.53,25.44,20.85-3.45,27.59-11.65-27-14.31s-52.21,2.26-52.41,9.54c-.19,7.28,4.43,34.72,4.76,42.92.33,8.21.06,13.65-1.59,12.72-1.65-.93-12.64-10.59-23.82-20.67-11.18-10.08-19.79-9-6.35,4.77,13.43,13.77,16.34,15.24,15.88,19.08-.46,3.83-24.95.14-33.35,0-8.4-.14-16.22,5.31,9.53,7.95,25.74,2.64,27.06-.66,17.47,17.49-9.59,18.14-7.08,28.36,0,20.67,7.08-7.69,16.34-22.51,20.65-23.85s19.12,14.05,25.41,19.08c6.29,5.03,21.9,19.62,14.29,0-7.61-19.61-15.82-7.01-15.88-34.97-.06-27.96-.73-30.46,6.35-30.21s35,20.01,49.23,23.85c14.23,3.83,7.74,9.87,41.4,13.25,56.46,5.65,95.65,40.36,106.5,74.63,10.84,34.27,24.91,47.21,33.47,41.12,8.56-6.09-5.52-5.33-9.13,10.66-3.61,15.99,24.15-4.57,28.91-12.19,4.76-7.61-24.54,16.75,0,16.75s47.73-10.66,30.43-12.19-21.16,24.37-21.16,24.37c0,0-2.09,2.09-2.27,2.22-62.51,43.72-138.57,69.36-220.61,69.36-213,0-385.68-172.85-385.68-386.07C5,245.44,97.29,111.14,230.17,50.18c19.75-9.06,29.34-12.93,33.75-14.31.21-.07,1.09-.21,1-.36-1.4-2.5-4.12-7.89-8.97-13.73-6.82-8.22-22.34-16.29-22.34-16.29,0,0,30.7-3.46,55.29,8.06,24.59,11.52,31.68,22.44,31.68,22.44,0,0,23.93-.41,48.45,15.84,24.52,16.25,35.76,28.75,45.18,48.34,9.42,19.59,8.63,26.22,12.21,29.31,3.58,3.09,15.85,18.58,14.36,23.64-1.49,5.06-1.68,15.8-34.04-2.57-32.36-18.37-41.49-17.09-41.49-17.09,0,0-22.17,19.69-49.61,21.36-27.43,1.68-43.26-2.18-43.26-2.18,0,0,26.39-10.3,32.29-20.16s7.59-16.58,7.59-16.58"/>
  </g>
</svg>